# Blender v2.79 (sub 0) OBJ File: ''
# www.blender.org
mtllib rock.mtl
o Cube
v 0.709429 -1.000000 -0.828893
v 0.522139 -1.000000 0.607903
v -0.830926 -0.937157 0.733945
v -0.748412 -0.829814 -0.686105
v 0.577132 0.679432 -0.714341
v 0.876982 0.543298 0.811139
v -1.000000 0.551021 1.000000
v -0.565493 0.644420 -1.000000
v 1.000000 -0.853901 0.000000
v 0.000000 -0.920035 -1.000000
v 1.000000 -0.138715 -1.000000
v 0.000000 -0.831235 0.705677
v 1.000000 0.127893 1.000000
v -0.880228 -1.115246 -0.000000
v -1.174172 0.107473 1.433378
v -1.000000 0.000000 -1.000000
v 1.000000 0.477653 0.000001
v 0.000000 0.711656 -1.000000
v -0.000001 0.660456 1.000000
v -1.000000 0.672579 -0.000000
v 0.000000 -0.171536 -1.339746
v -1.410907 0.000000 0.158465
v -0.000000 0.064104 1.610068
v 1.501889 0.000000 0.000000
v -0.000000 1.000000 0.000000
v 0.000000 -1.268726 -0.000000
vt 0.375022 0.624978
vt 0.375022 0.749957
vt 0.250043 0.749957
vt 0.250043 0.624978
vt 0.375022 0.125065
vt 0.250043 0.125065
vt 0.250043 0.000087
vt 0.375021 0.000087
vt 0.624978 0.375022
vt 0.624978 0.250043
vt 0.749957 0.250043
vt 0.749957 0.375021
vt 0.375022 0.874935
vt 0.375022 0.999913
vt 0.250043 0.999913
vt 0.250043 0.874935
vt 0.125065 0.375022
vt 0.125065 0.250043
vt 0.250043 0.250043
vt 0.250043 0.375022
vt 0.375022 0.375022
vt 0.375022 0.500000
vt 0.250043 0.500000
vt 0.375022 0.250043
vt 0.500000 0.250043
vt 0.500000 0.375022
vt 0.500000 0.500000
vt 0.125065 0.500000
vt 0.000087 0.500000
vt 0.000087 0.375022
vt 0.000087 0.250043
vt 0.500000 0.749957
vt 0.500000 0.874935
vt 0.500000 0.999913
vt 0.624978 0.500000
vt 0.749957 0.500000
vt 0.500000 0.125065
vt 0.500000 0.000087
vt 0.500000 0.624978
vn 0.0346 -0.9986 0.0386
vn 0.1212 -0.7847 0.6079
vn -0.4431 -0.7457 0.4976
vn -0.5730 -0.8191 -0.0273
vn 0.0578 0.9983 0.0114
vn -0.6118 0.7875 -0.0744
vn -0.4950 0.7866 0.3689
vn 0.0967 0.8641 0.4939
vn 0.9976 0.0692 0.0093
vn 0.6330 0.7721 -0.0549
vn 0.5130 0.7658 0.3879
vn 0.7023 0.0950 0.7055
vn 0.1502 0.0191 0.9885
vn -0.6303 0.0702 0.7732
vn -0.9972 0.0327 -0.0674
vn -0.4206 0.6554 -0.6273
vn -0.7206 0.0303 -0.6926
vn 0.0057 -0.0434 -0.9990
vn -0.0258 -0.7129 -0.7007
vn -0.5564 -0.6319 -0.5395
vn 0.0635 0.7399 -0.6697
vn 0.4791 0.7448 -0.4645
vn 0.6968 0.0425 -0.7160
vn 0.4742 -0.7177 -0.5099
vn 0.4028 -0.7606 0.5091
vn 0.6855 -0.7230 0.0851
usemtl Material
s 1
f 26/1/1 12/2/2 3/3/3 14/4/4
f 25/5/5 20/6/6 7/7/7 19/8/8
f 24/9/9 17/10/10 6/11/11 13/12/12
f 23/13/13 19/14/8 7/15/7 15/16/14
f 22/17/15 20/18/6 8/19/16 16/20/17
f 21/21/18 10/22/19 4/23/20 16/20/17
f 18/24/21 21/21/18 16/20/17 8/19/16
f 5/25/22 11/26/23 21/21/18 18/24/21
f 11/26/23 1/27/24 10/22/19 21/21/18
f 14/28/4 22/17/15 16/20/17 4/23/20
f 3/29/3 15/30/14 22/17/15 14/28/4
f 15/30/14 7/31/7 20/18/6 22/17/15
f 12/2/2 23/13/13 15/16/14 3/3/3
f 2/32/25 13/33/12 23/13/13 12/2/2
f 13/33/12 6/34/11 19/14/8 23/13/13
f 9/35/26 24/9/9 13/12/12 2/36/25
f 1/27/24 11/26/23 24/9/9 9/35/26
f 11/26/23 5/25/22 17/10/10 24/9/9
f 17/37/10 25/5/5 19/8/8 6/38/11
f 5/25/22 18/24/21 25/5/5 17/37/10
f 18/24/21 8/19/16 20/6/6 25/5/5
f 10/22/19 26/1/1 14/4/4 4/23/20
f 1/27/24 9/39/26 26/1/1 10/22/19
f 9/39/26 2/32/25 12/2/2 26/1/1
